
<svg xmlns="http://www.w3.org/2000/svg"
     width="633.6"
     height="384">
  
<defs>
  <linearGradient id="grad"
    gradientUnits="userSpaceOnUse"
    x1="0"
    y1="0"
    x2="633.6"
    y2="0">
    <stop offset="0%" stop-color="#FF6188" />
<stop offset="16.666666666666664%" stop-color="#FC9867" />
<stop offset="33.33333333333333%" stop-color="#FFD866" />
<stop offset="50%" stop-color="#A9DC76" />
<stop offset="66.66666666666666%" stop-color="#78DCE8" />
<stop offset="83.33333333333334%" stop-color="#5C7CFA" />
<stop offset="100%" stop-color="#AB9DF2" />
  </linearGradient>
</defs>

  <g font-family="monospace"
     font-size="32"
     text-anchor="start">
    <text x="57.599999999999994" y="32" fill="url(#grad)">$</text>
<text x="76.8" y="32" fill="url(#grad)">$</text>
<text x="96" y="32" fill="url(#grad)">$</text>
<text x="115.19999999999999" y="32" fill="url(#grad)">$</text>
<text x="134.4" y="32" fill="url(#grad)">$</text>
<text x="153.6" y="32" fill="url(#grad)">$</text>
<text x="172.79999999999998" y="32" fill="url(#grad)">$</text>
<text x="192" y="32" fill="url(#grad)">$</text>
<text x="211.2" y="32" fill="url(#grad)">\</text>
<text x="268.8" y="32" fill="url(#grad)">$</text>
<text x="288" y="32" fill="url(#grad)">$</text>
<text x="307.2" y="32" fill="url(#grad)">$</text>
<text x="326.4" y="32" fill="url(#grad)">$</text>
<text x="345.59999999999997" y="32" fill="url(#grad)">$</text>
<text x="364.8" y="32" fill="url(#grad)">$</text>
<text x="384" y="32" fill="url(#grad)">\</text>
<text x="460.79999999999995" y="32" fill="url(#grad)">$</text>
<text x="480" y="32" fill="url(#grad)">$</text>
<text x="499.2" y="32" fill="url(#grad)">$</text>
<text x="518.4" y="32" fill="url(#grad)">$</text>
<text x="537.6" y="32" fill="url(#grad)">$</text>
<text x="556.8" y="32" fill="url(#grad)">$</text>
<text x="576" y="32" fill="url(#grad)">\</text>
<text x="57.599999999999994" y="64" fill="url(#grad)">\</text>
<text x="76.8" y="64" fill="url(#grad)">_</text>
<text x="96" y="64" fill="url(#grad)">_</text>
<text x="115.19999999999999" y="64" fill="url(#grad)">$</text>
<text x="134.4" y="64" fill="url(#grad)">$</text>
<text x="192" y="64" fill="url(#grad)">_</text>
<text x="211.2" y="64" fill="url(#grad)">_</text>
<text x="230.39999999999998" y="64" fill="url(#grad)">|</text>
<text x="249.6" y="64" fill="url(#grad)">$</text>
<text x="268.8" y="64" fill="url(#grad)">$</text>
<text x="326.4" y="64" fill="url(#grad)">_</text>
<text x="345.59999999999997" y="64" fill="url(#grad)">_</text>
<text x="364.8" y="64" fill="url(#grad)">$</text>
<text x="384" y="64" fill="url(#grad)">$</text>
<text x="403.2" y="64" fill="url(#grad)">\</text>
<text x="441.59999999999997" y="64" fill="url(#grad)">$</text>
<text x="460.79999999999995" y="64" fill="url(#grad)">$</text>
<text x="518.4" y="64" fill="url(#grad)">_</text>
<text x="537.6" y="64" fill="url(#grad)">_</text>
<text x="556.8" y="64" fill="url(#grad)">$</text>
<text x="576" y="64" fill="url(#grad)">$</text>
<text x="595.1999999999999" y="64" fill="url(#grad)">\</text>
<text x="115.19999999999999" y="96" fill="url(#grad)">$</text>
<text x="134.4" y="96" fill="url(#grad)">$</text>
<text x="172.79999999999998" y="96" fill="url(#grad)">|</text>
<text x="249.6" y="96" fill="url(#grad)">$</text>
<text x="268.8" y="96" fill="url(#grad)">$</text>
<text x="307.2" y="96" fill="url(#grad)">/</text>
<text x="364.8" y="96" fill="url(#grad)">$</text>
<text x="384" y="96" fill="url(#grad)">$</text>
<text x="422.4" y="96" fill="url(#grad)">|</text>
<text x="441.59999999999997" y="96" fill="url(#grad)">$</text>
<text x="460.79999999999995" y="96" fill="url(#grad)">$</text>
<text x="499.2" y="96" fill="url(#grad)">/</text>
<text x="556.8" y="96" fill="url(#grad)">\</text>
<text x="576" y="96" fill="url(#grad)">_</text>
<text x="595.1999999999999" y="96" fill="url(#grad)">_</text>
<text x="614.4" y="96" fill="url(#grad)">|</text>
<text x="115.19999999999999" y="128" fill="url(#grad)">$</text>
<text x="134.4" y="128" fill="url(#grad)">$</text>
<text x="172.79999999999998" y="128" fill="url(#grad)">|</text>
<text x="249.6" y="128" fill="url(#grad)">$</text>
<text x="268.8" y="128" fill="url(#grad)">$</text>
<text x="307.2" y="128" fill="url(#grad)">|</text>
<text x="364.8" y="128" fill="url(#grad)">$</text>
<text x="384" y="128" fill="url(#grad)">$</text>
<text x="422.4" y="128" fill="url(#grad)">|</text>
<text x="441.59999999999997" y="128" fill="url(#grad)">$</text>
<text x="460.79999999999995" y="128" fill="url(#grad)">$</text>
<text x="499.2" y="128" fill="url(#grad)">|</text>
<text x="115.19999999999999" y="160" fill="url(#grad)">$</text>
<text x="134.4" y="160" fill="url(#grad)">$</text>
<text x="172.79999999999998" y="160" fill="url(#grad)">|</text>
<text x="249.6" y="160" fill="url(#grad)">$</text>
<text x="268.8" y="160" fill="url(#grad)">$</text>
<text x="307.2" y="160" fill="url(#grad)">|</text>
<text x="364.8" y="160" fill="url(#grad)">$</text>
<text x="384" y="160" fill="url(#grad)">$</text>
<text x="422.4" y="160" fill="url(#grad)">|</text>
<text x="441.59999999999997" y="160" fill="url(#grad)">$</text>
<text x="460.79999999999995" y="160" fill="url(#grad)">$</text>
<text x="499.2" y="160" fill="url(#grad)">|</text>
<text x="115.19999999999999" y="192" fill="url(#grad)">$</text>
<text x="134.4" y="192" fill="url(#grad)">$</text>
<text x="172.79999999999998" y="192" fill="url(#grad)">|</text>
<text x="249.6" y="192" fill="url(#grad)">$</text>
<text x="268.8" y="192" fill="url(#grad)">$</text>
<text x="307.2" y="192" fill="url(#grad)">|</text>
<text x="364.8" y="192" fill="url(#grad)">$</text>
<text x="384" y="192" fill="url(#grad)">$</text>
<text x="422.4" y="192" fill="url(#grad)">|</text>
<text x="441.59999999999997" y="192" fill="url(#grad)">$</text>
<text x="460.79999999999995" y="192" fill="url(#grad)">$</text>
<text x="499.2" y="192" fill="url(#grad)">|</text>
<text x="556.8" y="192" fill="url(#grad)">$</text>
<text x="576" y="192" fill="url(#grad)">$</text>
<text x="595.1999999999999" y="192" fill="url(#grad)">\</text>
<text x="115.19999999999999" y="224" fill="url(#grad)">$</text>
<text x="134.4" y="224" fill="url(#grad)">$</text>
<text x="172.79999999999998" y="224" fill="url(#grad)">|</text>
<text x="268.8" y="224" fill="url(#grad)">$</text>
<text x="288" y="224" fill="url(#grad)">$</text>
<text x="307.2" y="224" fill="url(#grad)">$</text>
<text x="326.4" y="224" fill="url(#grad)">$</text>
<text x="345.59999999999997" y="224" fill="url(#grad)">$</text>
<text x="364.8" y="224" fill="url(#grad)">$</text>
<text x="422.4" y="224" fill="url(#grad)">|</text>
<text x="441.59999999999997" y="224" fill="url(#grad)">\</text>
<text x="460.79999999999995" y="224" fill="url(#grad)">$</text>
<text x="480" y="224" fill="url(#grad)">$</text>
<text x="499.2" y="224" fill="url(#grad)">$</text>
<text x="518.4" y="224" fill="url(#grad)">$</text>
<text x="537.6" y="224" fill="url(#grad)">$</text>
<text x="556.8" y="224" fill="url(#grad)">$</text>
<text x="614.4" y="224" fill="url(#grad)">|</text>
<text x="115.19999999999999" y="256" fill="url(#grad)">\</text>
<text x="134.4" y="256" fill="url(#grad)">_</text>
<text x="153.6" y="256" fill="url(#grad)">_</text>
<text x="172.79999999999998" y="256" fill="url(#grad)">|</text>
<text x="268.8" y="256" fill="url(#grad)">\</text>
<text x="288" y="256" fill="url(#grad)">_</text>
<text x="307.2" y="256" fill="url(#grad)">_</text>
<text x="326.4" y="256" fill="url(#grad)">_</text>
<text x="345.59999999999997" y="256" fill="url(#grad)">_</text>
<text x="364.8" y="256" fill="url(#grad)">_</text>
<text x="384" y="256" fill="url(#grad)">_</text>
<text x="403.2" y="256" fill="url(#grad)">/</text>
<text x="460.79999999999995" y="256" fill="url(#grad)">\</text>
<text x="480" y="256" fill="url(#grad)">_</text>
<text x="499.2" y="256" fill="url(#grad)">_</text>
<text x="518.4" y="256" fill="url(#grad)">_</text>
<text x="537.6" y="256" fill="url(#grad)">_</text>
<text x="556.8" y="256" fill="url(#grad)">_</text>
<text x="576" y="256" fill="url(#grad)">_</text>
<text x="595.1999999999999" y="256" fill="url(#grad)">/</text>

  </g>
</svg>
